<?xml version="1.0" standalone="no"?>
<!DOCTYPE svg PUBLIC "-//W3C//DTD SVG 20010904//EN"
 "http://www.w3.org/TR/2001/REC-SVG-20010904/DTD/svg10.dtd">
<svg version="1.0" xmlns="http://www.w3.org/2000/svg"
 width="360.000000pt" height="360.000000pt" viewBox="0 0 360.000000 360.000000"
 preserveAspectRatio="xMidYMid meet">

<g transform="translate(0.000000,360.000000) scale(0.100000,-0.100000)"
fill="#000000" stroke="none">
<path d="M1703 3188 c-58 -56 -155 -193 -204 -291 -69 -135 -118 -357 -107
-477 3 -28 3 -50 2 -50 -2 0 -31 20 -65 45 -75 55 -164 98 -245 119 -73 19
-185 21 -202 4 -37 -37 12 -346 79 -496 49 -109 138 -221 218 -272 23 -16 21
-17 -78 -49 -119 -39 -196 -89 -229 -149 -31 -55 -41 -168 -42 -443 0 -172 3
-218 19 -282 50 -194 166 -332 338 -401 49 -21 58 -28 61 -53 2 -15 11 -37 20
-47 24 -27 91 -56 130 -56 40 0 89 24 96 47 5 17 27 18 271 18 244 0 266 -1
271 -18 13 -42 95 -58 167 -33 51 19 75 42 83 81 5 29 15 37 92 75 162 80 270
221 308 400 13 62 15 124 11 362 -4 269 -6 289 -26 332 -12 25 -39 60 -59 77
-36 32 -132 80 -184 93 l-27 6 39 83 c42 87 80 218 80 275 0 25 -5 35 -20 39
-24 6 -24 5 -1 51 59 115 109 370 102 515 -2 44 -222 0 -351 -69 -36 -20 -86
-53 -112 -75 l-46 -39 -7 68 c-22 215 -134 481 -263 624 -19 21 -41 38 -49 38
-8 0 -39 -24 -70 -52z m122 -60 c60 -80 146 -258 180 -373 35 -119 42 -247 21
-383 -9 -57 -19 -108 -22 -114 -4 -5 -13 4 -21 21 -25 50 -51 41 -201 -66
l-24 -17 3 327 c2 180 -1 330 -5 334 -4 4 -13 0 -20 -9 -14 -20 -28 -325 -25
-561 l1 -138 -42 -60 c-27 -38 -46 -56 -53 -51 -7 4 -29 18 -50 31 -44 28 -68
70 -99 178 -33 113 -32 333 1 448 31 106 77 206 145 311 54 82 140 184 157
184 4 0 28 -28 54 -62z m735 -485 c0 -43 -28 -216 -45 -286 -9 -34 -32 -96
-51 -138 l-36 -76 -61 -11 c-90 -17 -175 -63 -236 -127 -29 -30 -54 -55 -55
-55 -2 0 -6 26 -10 58 -4 31 -13 81 -21 111 -13 49 -12 61 5 135 11 45 22 105
26 134 6 49 11 57 68 108 74 66 215 138 311 158 101 21 105 21 105 -11z
m-1449 -163 c129 -43 309 -176 309 -228 0 -12 9 -44 20 -72 11 -28 20 -53 20
-55 0 -2 -16 -1 -36 2 -25 4 -39 2 -45 -8 -12 -20 -11 -136 3 -256 6 -57 9
-105 6 -108 -9 -9 -111 17 -158 40 -63 32 -168 147 -208 227 -60 124 -102 295
-102 420 l0 71 64 -6 c35 -3 92 -16 127 -27z m862 -289 c42 -112 60 -229 55
-361 -4 -136 -21 -182 -93 -259 -41 -43 -109 -81 -147 -81 -4 0 -8 49 -8 109
0 88 4 117 21 155 11 25 17 51 14 56 -11 17 -31 11 -43 -12 -7 -15 -11 -18
-11 -8 -1 21 -69 161 -88 182 -14 16 -13 22 16 67 51 80 208 219 247 221 7 0
23 -31 37 -69z m501 -138 c-52 -289 -242 -504 -469 -530 l-49 -6 33 42 c24 30
38 40 51 36 14 -5 41 21 115 110 64 76 95 120 91 131 -4 9 -11 12 -19 7 -13
-8 -79 -79 -146 -158 -18 -22 -31 -31 -27 -21 6 17 17 85 32 194 6 42 76 128
138 170 61 41 125 60 199 61 l58 1 -7 -37z m-967 -3 c146 -73 223 -226 226
-450 l2 -105 -35 3 c-87 9 -192 87 -228 170 -20 47 -45 188 -58 335 -6 72 -5
77 13 77 11 0 47 -14 80 -30z m-145 -340 c34 0 39 -3 58 -46 11 -26 20 -48 20
-49 0 -2 -37 -6 -82 -10 -160 -13 -281 -45 -324 -86 l-21 -20 -6 22 c-3 11
-12 19 -19 17 -20 -7 -21 -54 -2 -82 40 -62 252 -131 476 -155 125 -14 461
-14 586 0 308 33 520 119 510 206 -3 30 -38 47 -38 18 0 -14 -5 -13 -32 7 -18
12 -66 34 -108 49 -41 15 -74 30 -73 33 1 4 16 23 34 43 l31 36 67 -21 c86
-28 152 -70 180 -115 20 -33 23 -56 33 -283 8 -185 8 -271 -1 -342 -27 -224
-143 -375 -345 -453 -97 -37 -111 -46 -95 -65 6 -8 15 -11 20 -8 5 3 9 -2 9
-11 0 -24 -60 -55 -106 -55 -42 0 -76 22 -54 35 5 3 10 12 10 19 0 10 -49 12
-242 9 -134 -3 -276 -1 -315 4 -83 11 -104 4 -86 -26 31 -49 -86 -56 -134 -8
l-25 25 21 7 c39 12 18 37 -54 65 -149 57 -218 109 -286 214 -88 134 -103 235
-90 584 7 180 13 247 24 268 38 73 128 127 262 158 93 21 116 24 140 20 11 -2
37 -4 57 -4z m151 -180 c82 -61 138 -82 226 -84 153 -2 372 41 461 90 37 21
53 24 90 19 62 -9 128 -33 167 -60 39 -26 35 -32 -48 -68 -249 -109 -849 -127
-1189 -36 -83 22 -162 58 -167 75 -10 32 136 78 297 92 52 5 99 10 103 11 4 0
31 -17 60 -39z"/>
<path d="M2293 2428 c-87 -89 -213 -254 -213 -279 0 -21 12 -31 26 -21 5 4 22
27 38 52 33 50 90 121 183 225 35 38 63 75 63 82 0 28 -28 10 -97 -59z"/>
<path d="M1054 2356 c-3 -8 43 -75 111 -161 64 -81 122 -160 130 -174 22 -43
40 -54 55 -36 11 13 6 26 -33 83 -63 92 -235 302 -248 302 -5 0 -12 -6 -15
-14z"/>
<path d="M1834 1963 c-9 -20 -18 -52 -21 -71 -5 -29 -3 -33 11 -31 11 3 28 28
42 63 29 72 29 76 3 76 -14 0 -25 -11 -35 -37z"/>
<path d="M2281 1916 c-23 -24 -21 -46 3 -46 18 0 46 33 46 53 0 24 -23 21 -49
-7z"/>
<path d="M2035 980 c-13 -42 30 -110 70 -110 12 0 34 10 49 21 22 17 27 28 24
58 -4 45 -30 50 -38 6 -4 -22 -11 -31 -28 -33 -22 -3 -25 1 -36 51 -7 32 -32
36 -41 7z"/>
<path d="M1442 958 c-12 -47 -50 -52 -58 -9 -5 21 -12 31 -25 31 -15 0 -19 -7
-19 -34 0 -63 77 -99 120 -56 35 35 39 100 6 100 -9 0 -19 -14 -24 -32z"/>
<path d="M1680 945 c-16 -19 4 -79 33 -100 27 -19 77 -19 104 0 30 21 49 81
33 101 -15 17 -40 2 -40 -26 0 -9 -9 -25 -19 -34 -26 -24 -59 -12 -67 22 -12
58 -21 65 -44 37z"/>
</g>
</svg>
